<svg width="960" height="640" viewBox="0 0 960 640" fill="none" xmlns="http://www.w3.org/2000/svg">
  <rect width="960" height="640" rx="28" fill="#F7F5FE"/>
  <rect x="72" y="56" width="816" height="528" rx="24" fill="white" stroke="#D9C9F2"/>
  <rect x="112" y="108" width="320" height="24" rx="8" fill="#6C2EB9"/>
  <rect x="112" y="164" width="356" height="172" rx="18" fill="#F8F4FE" stroke="#D9C9F2"/>
  <rect x="492" y="164" width="356" height="172" rx="18" fill="#F8F4FE" stroke="#D9C9F2"/>
  <rect x="112" y="360" width="736" height="168" rx="18" fill="#F8F4FE" stroke="#D9C9F2"/>
  <rect x="140" y="196" width="170" height="18" rx="6" fill="#CDB3F1"/>
  <rect x="140" y="226" width="120" height="56" rx="10" fill="#6C2EB9"/>
  <rect x="520" y="196" width="170" height="18" rx="6" fill="#CDB3F1"/>
  <rect x="520" y="228" width="300" height="10" rx="5" fill="#DAC6F4"/>
  <rect x="520" y="246" width="230" height="10" rx="5" fill="#DAC6F4"/>
  <rect x="520" y="264" width="280" height="10" rx="5" fill="#DAC6F4"/>
  <rect x="140" y="388" width="200" height="18" rx="6" fill="#CDB3F1"/>
  <rect x="140" y="428" width="680" height="18" rx="8" fill="#E8DDF9"/>
  <rect x="140" y="464" width="520" height="18" rx="8" fill="#E8DDF9"/>
</svg>
