<svg width="960" height="640" viewBox="0 0 960 640" fill="none" xmlns="http://www.w3.org/2000/svg">
  <rect width="960" height="640" rx="28" fill="#F5F1E8"/>
  <rect x="72" y="56" width="816" height="528" rx="24" fill="white" stroke="#F5F1E8"/>
  <rect x="112" y="96" width="300" height="20" rx="8" fill="#8B2635"/>
  <text x="112" y="148" fill="rgba(44,44,44,0.6)" font-size="18" font-family="Inter, Arial, sans-serif">Dashboard Preview</text>

  <rect x="112" y="170" width="360" height="180" rx="16" fill="#F5F1E8" stroke="#F5F1E8"/>
  <text x="136" y="214" fill="rgba(44,44,44,0.6)" font-size="14" font-family="Inter, Arial, sans-serif">TOTAL RECRUITING SPEND</text>
  <text x="136" y="266" fill="#2C2C2C" font-size="56" font-weight="800" font-family="Inter, Arial, sans-serif">$1,245</text>
  <rect x="136" y="286" width="300" height="12" rx="6" fill="#2C2C2C1A"/>
  <rect x="136" y="286" width="204" height="12" rx="6" fill="#8B2635"/>
  <text x="136" y="322" fill="rgba(44,44,44,0.6)" font-size="16" font-family="Inter, Arial, sans-serif">72% of month budget used</text>

  <rect x="492" y="170" width="356" height="180" rx="16" fill="#F5F1E8" stroke="#F5F1E8"/>
  <text x="516" y="214" fill="rgba(44,44,44,0.6)" font-size="14" font-family="Inter, Arial, sans-serif">WEEKLY STREAK</text>
  <text x="516" y="266" fill="#D4AF37" font-size="48" font-weight="800" font-family="Inter, Arial, sans-serif">5 weeks</text>
  <polyline points="520,324 570,302 620,308 670,278 720,286 770,250 820,258" fill="none" stroke="#D4AF37" stroke-width="6" stroke-linecap="round" stroke-linejoin="round"/>

  <rect x="112" y="370" width="736" height="164" rx="16" fill="#F5F1E8" stroke="#F5F1E8"/>
  <text x="136" y="414" fill="rgba(44,44,44,0.6)" font-size="14" font-family="Inter, Arial, sans-serif">PHASE PROGRESS</text>
  <rect x="136" y="432" width="688" height="14" rx="7" fill="#2C2C2C1A"/>
  <rect x="136" y="432" width="432" height="14" rx="7" fill="#8B2635"/>
  <text x="136" y="472" fill="#2C2C2C" font-size="18" font-family="Inter, Arial, sans-serif">Evaluation - Outreach - Commitment</text>
  <text x="136" y="506" fill="rgba(44,44,44,0.6)" font-size="16" font-family="Inter, Arial, sans-serif">Upgrade unlocks full expense benchmarks and division comparisons.</text>
</svg>
