<svg width="960" height="640" viewBox="0 0 960 640" fill="none" xmlns="http://www.w3.org/2000/svg">
  <rect width="960" height="640" rx="28" fill="#F7F5FE"/>
  <rect x="72" y="56" width="816" height="528" rx="24" fill="white" stroke="#D9C9F2"/>
  <rect x="112" y="108" width="240" height="24" rx="8" fill="#6C2EB9"/>
  <rect x="112" y="162" width="736" height="64" rx="14" fill="#F6F2FD" stroke="#D9C9F2"/>
  <rect x="112" y="246" width="356" height="64" rx="14" fill="#F6F2FD" stroke="#D9C9F2"/>
  <rect x="492" y="246" width="356" height="64" rx="14" fill="#F6F2FD" stroke="#D9C9F2"/>
  <rect x="112" y="330" width="736" height="64" rx="14" fill="#F6F2FD" stroke="#D9C9F2"/>
  <rect x="112" y="414" width="736" height="64" rx="14" fill="#F6F2FD" stroke="#D9C9F2"/>
  <rect x="672" y="502" width="176" height="50" rx="12" fill="#6C2EB9"/>
  <rect x="132" y="179" width="180" height="18" rx="6" fill="#CDB3F1"/>
  <rect x="132" y="263" width="150" height="18" rx="6" fill="#CDB3F1"/>
  <rect x="512" y="263" width="150" height="18" rx="6" fill="#CDB3F1"/>
  <rect x="132" y="347" width="150" height="18" rx="6" fill="#CDB3F1"/>
  <rect x="132" y="431" width="150" height="18" rx="6" fill="#CDB3F1"/>
</svg>
